<svg fill="none" height="20" viewBox="0 0 62 20" width="62" xmlns="http://www.w3.org/2000/svg" xmlns:xlink="http://www.w3.org/1999/xlink"><linearGradient id="a"><stop offset=".380208" stop-color="#ffa200"/><stop offset="1" stop-color="#fde43b"/></linearGradient><linearGradient id="b" gradientUnits="userSpaceOnUse" x1="10.5472" x2="14.3097" xlink:href="#a" y1="22.9043" y2="1.63045"/><linearGradient id="c" gradientUnits="userSpaceOnUse" x1="10.5472" x2="14.3097" xlink:href="#a" y1="22.9038" y2="1.6299"/><linearGradient id="d" gradientUnits="userSpaceOnUse" x1="10.5469" x2="14.3095" xlink:href="#a" y1="22.9038" y2="1.62988"/><linearGradient id="e" gradientUnits="userSpaceOnUse" x1="10.5472" x2="14.3098" xlink:href="#a" y1="22.9038" y2="1.62996"/><linearGradient id="f" gradientUnits="userSpaceOnUse" x1="10.5474" x2="14.3099" xlink:href="#a" y1="22.9037" y2="1.62979"/><linearGradient id="g" gradientUnits="userSpaceOnUse" x1="10.5471" x2="14.3096" xlink:href="#a" y1="22.904" y2="1.63015"/><linearGradient id="h" gradientUnits="userSpaceOnUse" x1="10.5472" x2="14.3098" xlink:href="#a" y1="22.9035" y2="1.62967"/><linearGradient id="i" gradientUnits="userSpaceOnUse" x1="10.5469" x2="14.3095" xlink:href="#a" y1="22.9038" y2="1.62995"/><linearGradient id="j" gradientUnits="userSpaceOnUse" x1="3.07" x2="1.72474" y1="8.66211" y2="15.9547"><stop offset="0" stop-color="#ffaa06"/><stop offset="1" stop-color="#fff348"/></linearGradient><linearGradient id="k" gradientUnits="userSpaceOnUse" x1="9.61062" x2="5.37819" y1="8.66207" y2="23.7868"><stop offset="0" stop-color="#ffab00"/><stop offset="1" stop-color="#ffe600" stop-opacity="0"/></linearGradient><clipPath id="l"><path d="m0 0h62v20h-62z"/></clipPath><g clip-path="url(#l)"><path d="m16.4688.302734h.8307l3.142 1.975876h-.8761z" fill="#ffa200"/><path d="m13.2212 19.6976h.8308l3.1419-1.9759h-.8761z" fill="#fde43b"/><path d="m10.9876 15.9584 1.9915-6.04922 1.7942 6.04922h4.3727s-.339.9448-.5562 1.5503c-.4295.1007-.6744.1442-1.1125.1976-.4561.0556-1.1743.076-1.1743.076h-12.33033c-.92707 0-1.49878 0-2.41042-.2888-.52804-.1673-.865278-.3952-1.127952-.7144-.326667-.3969-.3551964-.8207-.3551964-.8207z" fill="url(#b)"/><path d="m3.86452 3.47945c.33162-.27978.54805-.40806.94254-.59276.40144-.18797 1.08161-.34958 1.08161-.34958l-.52537 1.5655-1.35972 5.09167-1.85418 6.76352h-2.0702984s.0000099-1.3027.1079664-1.763c.58328-2.4872.726244-2.7055 1.375182-5.10692.37871-1.40144.61808-2.18865 1.01979-3.55657.36457-1.24139.55663-1.43946 1.28248-2.05186z" fill="url(#c)"/><path d="m18.6821 4.10259-1.6549 6.01881-2.1307-6.01881h-9.54884l.5408-1.5655s.478-.09811.78802-.13679c.30622-.03821.78802-.06509.78802-.06509l13.0411-.0608c.927 0 1.4987.0043 2.4104.29308.528.16727.8653.39517 1.1279.71435.3267.39694.3245.82075.3245.82075z" fill="url(#d)"/><path d="m20.614 16.5507c-.3316.2797-.5481.408-.9425.5927-.4015.188-.6474.2709-1.0817.3648.2052-.6173.5254-1.5807.5254-1.5807l1.3597-5.0917 1.8542-6.76353h2.0396s-.0034.92081-.0773 1.5047c-.1364 1.0787-1.9884 8.07043-2.3949 8.92183-.4066.8514-.5567 1.4395-1.2825 2.0519z" fill="url(#e)"/><path d="m16.4687.302734 3.1051 1.980216-6.272.04885z" fill="url(#f)"/><path d="m13.2207 19.697-3.1641-2.029h6.3428z" fill="url(#g)"/><path d="m9.14676 4.10237h1.47014l-3.1653 11.85523h-1.47015z" fill="url(#h)"/><path d="m3.47803 7.17285h5.31529v1.4895h-5.31529z" fill="url(#i)"/><path d="m14.9427 15.9584-1.9637-6.04922 1.2084 6.04922z" fill="#fff348"/><path d="m19.0817 4.10237-2.0544 6.01883 1.284-6.01883z" fill="#ffa200"/><path d="m23.9074 5.01409.0587-.42661c.0554-.40268-.027-.81239-.2336-1.16178-.2495-.42205-.6603-.72255-1.1363-.83124l-1.3843-.31614h.4812c.1219.00001.2435.01313.3626.03914l.9863.21541c.503.10987.9455.40853 1.2374.8352.2323.33954.3567.74207.3567 1.1543v.29516c0 .26088-.034.52063-.1011.77263l-2.4861 9.33584c-.2024.7601-.6618 1.4255-1.299 1.8817-.3239.2318-.686.4041-1.0696.5087l-.2689.0734c-.621.1694-1.2569.2772-1.8987.3217l-.3491.0242 2.1265-.7687c.263-.0951.5126-.2241.7425-.384.6291-.4374 1.0831-1.0855 1.281-1.8287z" fill="#fff348"/><path d="m2.48089 15.9576h-.74017l1.98265-7.29549h.67591z" fill="url(#j)"/><path d="m7.8886 15.9576h-.74016l3.14196-11.85523h.6948z" fill="#fff349"/><path d="m7.8886 15.9576h-.74016l3.14196-11.85523h.6948z" fill="url(#k)"/><path d="m4.8224 7.17257h-.74672l.82609-3.0702h.67591z" fill="#ffaa06"/><g fill="#fff"><path d="m28.7735 4.15804s-1.1651.1816-1.4988.31371c-.8751.35222-1.5315 1.12275-1.898 2.22899-.1094.33022-1.5206 5.61926-1.7066 6.40626-.1969.8256-.1969 1.453 0 1.8658.2298.4678.6072.732 1.2854.8916.2954.0715.8588.0935 3.2327.1101 3.6866.033 4.2827-.0276 5.2126-.5174.651-.3467 1.2362-1.1227 1.5589-2.0859.1643-.4788 1.6465-6.07055 1.7667-6.65395.2955-1.43096-.0927-2.15744-1.329-2.48768-.3009-.07703-.7495-.09357-3.3803-.09907-1.6682-.0055-3.2436.02754-3.2436.02754zm4.146 3.17562c-.0764.32471-1.3456 5.06344-1.4002 5.22854l-.0602.1816h-2.0183c-1.1104 0-2.0184 0-2.0184 0 0-.033 1.2581-4.76622 1.4003-5.27256l.082-.28619h2.0294 2.0238z"/><path d="m38.6337 4.10254c-.1314.39627-2.4069 9.13616-2.4616 9.44986-.2024 1.1227.0384 1.7997.7438 2.1079.684.2917.8097.3027 4.2612.3027 2.8825 0 3.2489-.011 3.6921-.0991 1.3181-.2697 2.0238-.8696 2.5489-2.1574.1202-.2917.6945-2.3281 1.4111-5.01939.6674-2.48765 1.2088-4.56806 1.2088-4.58457 0 0-.8314 0-1.8486 0h-1.8489l-1.1432 4.26536c-.629 2.3446-1.1816 4.3424-1.2033 4.3754h-1.9691-.9982-.9985l1.1544-4.26533c.629-2.33357 1.1432-4.33692 1.1432-4.37543 0 0-.4049 0-1.8326 0-1.4221 0-1.8595 0-1.8595 0z"/><path d="m50.9807 4.10254c-.0109.03851-.1858.75399-.3828 1.51352-.197.75399-.4211 1.51902-.4377 1.56853h1.8325 1.8106l-.0384.12108c-.022.07156-.5417 2.00885-1.154 4.30943-.6127 2.3005-1.2036 4.3259-1.22 4.3754h1.9091 1.8652c.0163-.066.5743-2.1684 1.1978-4.513l1.1459-4.2819h1.8024 1.816c.0163-.04952.5961-2.33907.793-3.09306 0 0-1.0939 0-5.4479 0-4.3265 0-5.4917 0-5.4917 0z"/></g></g></svg>