<svg fill="none" height="638" viewBox="0 0 2047 638" width="2047" xmlns="http://www.w3.org/2000/svg" xmlns:xlink="http://www.w3.org/1999/xlink"><linearGradient id="a" gradientUnits="userSpaceOnUse" x1="346.5" x2="469.559" y1="743.5" y2="43.3951"><stop offset=".380208" stop-color="#ffa200"/><stop offset="1" stop-color="#fde43b"/></linearGradient><linearGradient id="b" gradientUnits="userSpaceOnUse" x1="99" x2="55" y1="275" y2="515"><stop offset="0" stop-color="#ffaa06"/><stop offset="1" stop-color="#fff348"/></linearGradient><linearGradient id="c" gradientUnits="userSpaceOnUse" x1="315.5" x2="177" y1="275" y2="772.999"><stop offset="0" stop-color="#ffab00"/><stop offset="1" stop-color="#ffe600" stop-opacity="0"/></linearGradient><path d="m542.5 0h27.5l104 65h-29z" fill="#ffa200"/><path d="m435 638h27.5l104-65h-29z" fill="#fde43b"/><g fill="url(#a)"><path d="m361.08 515 65.92-199 59.387 199h144.741s-11.221 31.083-18.412 51c-14.215 3.312-22.322 4.743-36.824 6.5-15.098 1.829-38.871 2.5-38.871 2.5h-408.141c-30.6868 0-49.6107 0-79.7865-9.5-17.4786-5.503-28.6414-13-37.3361-23.5-10.812901-13.058-11.75723952-27-11.75723952-27z"/><path d="m125.3 104.5c10.977-9.2038 18.141-13.4239 31.199-19.5 13.288-6.1835 35.802-11.5 35.802-11.5l-17.39 51.5-45.008 167.5-61.3744 222.5h-68.52843952s.0003278-42.856 3.57376952-58c19.30697-81.821 24.03917-89 45.51957-168 12.5355-46.103 20.4588-72 33.7558-117 12.0673-40.838 18.4247-47.354 42.4507-67.5z"/><path d="m615.778 125-54.778 198-70.527-198h-316.073l17.901-51.5s15.822-3.2275 26.084-4.5c10.136-1.257 26.084-2.1412 26.084-2.1412l431.668-2c30.687 0 49.61.1412 79.786 9.6412 17.479 5.5026 28.642 13 37.336 23.5 10.813 13.058 10.741 27 10.741 27z"/><path d="m679.716 534.5c-10.976 9.204-18.141 13.424-31.198 19.5-13.289 6.184-21.428 8.912-35.802 12 6.791-20.307 17.389-52 17.389-52l45.008-167.5 61.375-222.5h67.512s-.112 30.292-2.557 49.5c-4.516 35.486-65.819 265.492-79.276 293.5s-18.424 47.354-42.451 67.5z"/><path d="m542.5 0 102.781 65.143-207.609 1.607z"/><path d="m435 638-104.734-66.75h209.95z"/><path d="m300.143 125h48.663l-104.774 390h-48.663z"/><path d="m112.514 226h175.94v49h-175.94z"/></g><path d="m492 515-65-199 40 199z" fill="#fff348"/><path d="m629 125-68 198 42.5-198z" fill="#ffa200"/><path d="m788.725 154.998 1.942-14.034c1.834-13.247-.892-26.725-7.73-38.219-8.261-13.8841-21.857-23.7695-37.612-27.3451l-45.824-10.4001 15.929.0001c4.035.0001 8.059.4317 12.002 1.2876l32.647 7.0862c16.651 3.6143 31.299 13.4395 40.96 27.4753 7.689 11.17 11.806 24.412 11.806 37.973v9.71c0 8.582-1.125 17.127-3.346 25.417l-82.292 307.12c-6.7 25.005-21.905 46.894-42.998 61.901-10.72 7.627-22.706 13.293-35.404 16.736l-8.902 2.414c-20.553 5.573-41.602 9.118-62.846 10.583l-11.557.797 70.388-25.288c8.706-3.128 16.968-7.374 24.578-12.633 20.823-14.389 35.852-35.711 42.402-60.159z" fill="#fff348"/><path d="m79.5 515h-24.5l65.627-240h22.373z" fill="url(#b)"/><path d="m258.5 515h-24.5l104-390h23z" fill="#fff349"/><path d="m258.5 515h-24.5l104-390h23z" fill="url(#c)"/><path d="m157 226h-24.717l27.344-101h22.373z" fill="#ffaa06"/><path d="m949.812 126.811s-38.565 5.974-49.609 10.32c-28.969 11.587-50.695 36.935-62.826 73.327-3.621 10.863-50.333 184.856-56.489 210.747-6.517 27.158-6.517 47.798 0 61.377 7.605 15.39 20.097 24.08 42.548 29.331 9.777 2.353 28.426 3.078 107.003 3.621 122.031 1.086 141.761-.905 172.541-17.019 21.55-11.407 40.92-36.935 51.6-68.62 5.44-15.751 54.5-199.702 58.48-218.894 9.78-47.074-3.07-70.973-43.99-81.837-9.96-2.534-24.81-3.078-111.89-3.259-55.22-.181-107.368.906-107.368.906zm137.238 104.468c-2.53 10.682-44.54 166.57-46.35 172.001l-1.99 5.975h-66.809c-36.754 0-66.809 0-66.809 0 0-1.086 41.642-156.793 46.349-173.45l2.716-9.415h67.173 66.99z" fill="#fff"/><path d="m1276.19 125c-4.35 13.036-79.67 300.55-81.48 310.87-6.7 36.935 1.27 59.205 24.62 69.344 22.64 9.596 26.8 9.958 141.05 9.958 95.41 0 107.54-.362 122.21-3.259 43.63-8.872 66.99-28.607 84.37-70.974 3.98-9.595 22.99-76.585 46.71-165.121 22.09-81.836 40.01-150.275 40.01-150.818 0 0-27.52 0-61.19 0h-61.2l-37.84 140.317c-20.82 77.129-39.11 142.852-39.83 143.938h-65.18-33.04-33.05l38.21-140.317c20.82-76.767 37.84-142.671 37.84-143.938 0 0-13.4 0-60.66 0-47.07 0-61.55 0-61.55 0z" fill="#fff"/><path d="m1684.89 125c-.36 1.267-6.15 24.804-12.67 49.79-6.52 24.804-13.94 49.971-14.49 51.6h60.66 59.93l-1.27 3.983c-.73 2.354-17.93 66.085-38.2 141.766-20.28 75.68-39.84 142.308-40.38 143.938h63.19 61.74c.54-2.173 19.01-71.335 39.65-148.464l37.93-140.861h59.66 60.11c.54-1.629 19.73-76.948 26.25-101.752 0 0-36.21 0-180.33 0-143.21 0-181.78 0-181.78 0z" fill="#fff"/></svg>